{"accessors":[{"bufferView":0,"componentType":5123,"count":350208,"max":[60961],"min":[0],"type":"SCALAR"},{"bufferView":1,"componentType":5126,"count":60962,"max":[0.8761416673660278,0.9290273785591125,0.8761417865753174],"min":[-0.876141369342804,-0.5460550785064697,-0.876141369342804],"type":"VEC3"},{"bufferView":2,"componentType":5126,"count":60962,"max":[0.999969482421875,1.0,0.999969482421875],"min":[-0.999969482421875,-1.0,-0.999969482421875],"type":"VEC3"},{"bufferView":3,"componentType":5126,"count":60962,"max":[1.0000003576278687,1.0],"min":[4.139212306242257e-10,0.12499964237213135],"type":"VEC2"}],"asset":{"generator":"Soft8Soft Verge3D for Blender add-on","version":"2.0"},"bufferViews":[{"buffer":0,"byteLength":700416,"byteOffset":0,"target":34963},{"buffer":0,"byteLength":731544,"byteOffset":700416,"target":34962},{"buffer":0,"byteLength":731544,"byteOffset":1431960,"target":34962},{"buffer":0,"byteLength":487696,"byteOffset":2163504,"target":34962}],"buffers":[{"byteLength":2651200,"uri":"Vase.bin"}],"cameras":[{"extensions":{"S8S_v3d_camera_data":{"controls":"ORBIT","enablePan":true,"moveSpeed":1.0,"orbitMaxDistance":100.0,"orbitMaxPolarAngle":3.1415927410125732,"orbitMinDistance":0.0,"orbitMinPolarAngle":0.0,"orbitTarget":[0.0,0.0,-0.0],"rotateSpeed":1.0,"viewportFitInitialAspect":1.7777777777777777,"viewportFitType":"AUTO"}},"name":"Camera","perspective":{"aspectRatio":1.7777777777777777,"yfov":0.5033799372418416,"zfar":100.0,"znear":0.10000000149011612},"type":"perspective"}],"extensions":{"S8S_v3d_data":{"lights":[{"color":[1.0,1.0,1.0],"constantAttenuation":1.0,"decay":2,"distance":29.999982833862305,"intensity":100.0,"linearAttenuation":0.0,"name":"Lamp","profile":"blender","quadraticAttenuation":0.03333335240683057,"shadow":{"bias":-1.0,"cameraFar":30.00200080871582,"cameraFov":0,"cameraNear":1.0007989406585693,"cameraOrthoBottom":-5.0,"cameraOrthoLeft":-5.0,"cameraOrthoRight":5.0,"cameraOrthoTop":5.0,"expBias":2.5,"mapSize":512,"radius":1},"type":"point"},{"color":[0,0,0],"name":"Ambient_Scene","profile":"blender","type":"ambient"}]}},"extensionsUsed":["S8S_v3d_texture_data","S8S_v3d_material_data","S8S_v3d_camera_data","S8S_v3d_data","S8S_v3d_mesh_data","S8S_v3d_node_data","S8S_v3d_scene_data"],"images":[{"uri":"photos_2018_5_10_fst_brown-nature-texture-wood.jpg"},{"uri":"environment.hdr"}],"materials":[{"extensions":{"S8S_v3d_material_data":{"nodeGraph":{"edges":[{"fromNode":3,"fromOutput":1,"toInput":0,"toNode":4},{"fromNode":0,"fromOutput":0,"toInput":0,"toNode":1},{"fromNode":4,"fromOutput":0,"toInput":0,"toNode":8},{"fromNode":5,"fromOutput":0,"toInput":1,"toNode":8},{"fromNode":8,"fromOutput":0,"toInput":0,"toNode":9},{"fromNode":2,"fromOutput":0,"toInput":0,"toNode":5},{"fromNode":1,"fromOutput":0,"toInput":1,"toNode":7},{"fromNode":1,"fromOutput":1,"toInput":15,"toNode":6},{"fromNode":6,"fromOutput":0,"toInput":2,"toNode":8},{"fromNode":7,"fromOutput":0,"toInput":0,"toNode":6}],"nodes":[{"coloring":"INTENSITY","distance":"DISTANCE","feature":"F1","inputs":[[0.0,0.0,0.0],11.799999237060547,0.5],"is_active_output":false,"name":"Voronoi Texture","outputs":[[0.0,0.0,0.0,0.0],0.0],"type":"TEX_VORONOI"},{"curve":{"input":[0.0,0.31818243861198425,0.6840911507606506,1.0,1.0],"interpolation":"LINEAR","output":[0.23121385276317596,0.040532827377319336,0.7673152685165405,1.0,0.05946091189980507,0.0,1.0,1.0,0.0007053865119814873,0.0,0.0696408823132515,1.0,0.0,0.0,0.0,1.0,0.0,0.0,0.0,1.0]},"inputs":[0.5],"is_active_output":false,"name":"ColorRamp.001","outputs":[[0.0,0.0,0.0,0.0],0.0],"type":"VALTORGB"},{"inputs":[[0.0,0.0,0.0]],"is_active_output":false,"name":"Image Texture","outputs":[[0.0,0.0,0.0,0.0],0.0],"projection":"FLAT","projectionBlend":0.0,"texture":0,"type":"TEX_IMAGE"},{"dispersionFactor":1.0,"falloffFactor":0.0,"inputs":[[0.0,0.0,0.0],4.800000190734863,0.6000001430511475,0.09999999403953552],"is_active_output":false,"name":"Noise Texture","outputs":[[0.0,0.0,0.0,0.0],0.0],"type":"TEX_NOISE"},{"curve":{"input":[0.0,0.5590908527374268],"interpolation":"STEP","output":[0.0,0.0,0.0,1.0,1.0,1.0,1.0,1.0]},"inputs":[0.5],"is_active_output":false,"name":"ColorRamp","outputs":[[0.0,0.0,0.0,0.0],0.0],"type":"VALTORGB"},{"inputs":[[0.800000011920929,0.800000011920929,0.800000011920929,1.0],0.0,[1.0,0.20000000298023224,0.10000000149011612],[1.0,1.0,1.0,1.0],0.0,0.7636363506317139,0.0,0.5,0.0,0.0,0.30909091234207153,0.5,0.0,0.029999999329447746,1.4500000476837158,0.0,0.0,[0.0,0.0,0.0,1.0],1.0,[0.0,0.0,0.0],[0.0,0.0,0.0],[0.0,0.0,0.0]],"is_active_output":false,"name":"Principled BSDF","outputs":[[0,0,0,0]],"type":"BSDF_PRINCIPLED"},{"inputs":[[0.800000011920929,0.800000011920929,0.800000011920929,1.0],0.0,[1.0,0.20000000298023224,0.10000000149011612],[0.800000011920929,0.800000011920929,0.800000011920929,1.0],0.0,0.5,0.0,0.0,0.0,0.0,0.0,0.5,0.0,0.029999999329447746,1.4500000476837158,1.0,0.0,[0.0,0.0,0.0,1.0],1.0,[0.0,0.0,0.0],[0.0,0.0,0.0],[0.0,0.0,0.0]],"is_active_output":false,"name":"Principled BSDF.001","outputs":[[0,0,0,0]],"type":"BSDF_PRINCIPLED"},{"blendType":"OVERLAY","inputs":[0.4583333432674408,[0.0,0.0,0.0,1.0],[0.5,0.5,0.5,1.0]],"is_active_output":false,"name":"Mix","outputs":[[0.0,0.0,0.0,0.0]],"type":"MIX_RGB","useClamp":false},{"inputs":[0.5,[0,0,0,0],[0,0,0,0]],"is_active_output":false,"name":"Mix Shader","outputs":[[0,0,0,0]],"type":"MIX_SHADER"},{"inputs":[[0,0,0,0],[0,0,0,0],[0.0,0.0,0.0]],"is_active_output":true,"name":"Material Output","outputs":[],"type":"OUTPUT_MATERIAL"}]},"useCastShadows":true}},"name":"wood and resin"},{"extensions":{"S8S_v3d_material_data":{"nodeGraph":{"edges":[{"fromNode":0,"fromOutput":0,"toInput":0,"toNode":1},{"fromNode":4,"fromOutput":0,"toInput":1,"toNode":2},{"fromNode":3,"fromOutput":0,"toInput":0,"toNode":2},{"fromNode":2,"fromOutput":0,"toInput":0,"toNode":0}],"nodes":[{"inputs":[[0.05087608844041824,0.05087608844041824,0.05087608844041824,1.0],1.0],"is_active_output":false,"name":"Background","outputs":[[0,0,0,0]],"type":"BACKGROUND"},{"inputs":[[0,0,0,0],[0,0,0,0]],"is_active_output":true,"name":"World Output","outputs":[],"type":"OUTPUT_WORLD"},{"blendType":"MIX","inputs":[0.5,[0.5,0.5,0.5,1.0],[0.05126946419477463,0.05126946419477463,0.05126946419477463,1.0]],"is_active_output":false,"name":"Mix","outputs":[[0.0,0.0,0.0,0.0]],"type":"MIX_RGB","useClamp":false},{"inputs":[],"is_active_output":false,"name":"Light Path","outputs":[0.0,0.0,0.0,0.0,0.0,0.0,0.0,0.0,0.0,0.0,0.0,0.0,0.0],"type":"LIGHT_PATH"},{"inputs":[[0.0,0.0,0.0]],"is_active_output":false,"name":"Environment Texture","outputs":[[0.0,0.0,0.0,0.0]],"projection":"EQUIRECTANGULAR","texture":1,"type":"TEX_ENVIRONMENT"}]},"useCastShadows":true}},"name":"Verge3D_Environment_World"}],"meshes":[{"extensions":{"S8S_v3d_mesh_data":{"colorLayers":{},"uvLayers":{"UVMap":"TEXCOORD_0"}}},"name":"Sphere.001","primitives":[{"attributes":{"NORMAL":2,"POSITION":1,"TEXCOORD_0":3},"indices":0,"material":0,"mode":4}]}],"nodes":[{"extensions":{"S8S_v3d_node_data":{"frustumCulling":true,"groupNames":["Collection 1"],"hidden":false,"light":0,"renderOrder":0}},"name":"Lamp","rotation":[-0.2841663062572479,0.7269423604011536,0.34203389286994934,0.5232754945755005],"scale":[0.9999999403953552,0.9999997615814209,0.9999998807907104],"translation":[4.076245307922363,5.903861999511719,-1.0054539442062378]},{"extensions":{"S8S_v3d_node_data":{"frustumCulling":true,"groupNames":[],"hidden":false,"renderOrder":0,"useShadows":true}},"mesh":0,"name":"Vaas.3","translation":[0.0,0.5475853681564331,-0.0]},{"camera":0,"extensions":{"S8S_v3d_node_data":{"frustumCulling":true,"groupNames":["Collection 1"],"hidden":false,"renderOrder":0}},"name":"Camera","rotation":[-0.2099730223417282,0.3857799768447876,0.09062845259904861,0.8937963247299194],"scale":[1.0,0.9999998807907104,0.9999998807907104],"translation":[7.226052284240723,5.1113457679748535,6.946681022644043]}],"samplers":[{}],"scene":0,"scenes":[{"extensions":{"S8S_v3d_scene_data":{"aaMethod":"AUTO","light":1,"physicallyCorrectLights":true,"shadowMap":{"renderReverseSided":false,"renderSingleSided":true,"type":"ESM"},"worldMaterial":1}},"extras":{"animFrameRate":24},"name":"Scene","nodes":[1,0,2]}],"textures":[{"extensions":{"S8S_v3d_texture_data":{"colorSpace":"srgb"}},"name":"photos_2018_5_10_fst_brown-nature-texture-wood.jpg","sampler":0,"source":0},{"extensions":{"S8S_v3d_texture_data":{"colorSpace":"linear"}},"name":"environment.hdr","sampler":0,"source":1}]}
